<svg xmlns="http://www.w3.org/2000/svg" width="1200" height="300" viewBox="0 0 1200 300" role="img" aria-labelledby="title desc">
  <title id="title">takawaka — 42 Tokyo</title>
  <desc id="desc">Systems programming and infrastructure, with a black and green terminal-inspired design.</desc>
  <defs>
    <linearGradient id="background" x1="0" y1="0" x2="1" y2="1">
      <stop offset="0" stop-color="#050806" />
      <stop offset="1" stop-color="#0A1710" />
    </linearGradient>
    <radialGradient id="greenGlow">
      <stop offset="0" stop-color="#39FF14" stop-opacity="0.16" />
      <stop offset="1" stop-color="#39FF14" stop-opacity="0" />
    </radialGradient>
    <pattern id="grid" width="32" height="32" patternUnits="userSpaceOnUse">
      <path d="M 32 0 L 0 0 0 32" fill="none" stroke="#1C3927" stroke-width="1" opacity="0.38" />
    </pattern>
  </defs>
  <rect width="1200" height="300" rx="18" fill="url(#background)" />
  <rect width="1200" height="300" rx="18" fill="url(#grid)" />
  <circle cx="970" cy="135" r="300" fill="url(#greenGlow)" />
  <path d="M0 258 H1200" stroke="#163522" stroke-width="1" />
  <rect x="66" y="58" width="7" height="184" rx="3.5" fill="#39FF14" />
  <text x="100" y="93" fill="#72D98A" font-family="monospace" font-size="15" letter-spacing="3">42 TOKYO / SOFTWARE DEVELOPMENT</text>
  <text x="96" y="157" fill="#F0FFF2" font-family="monospace" font-size="54" font-weight="700">takawaka</text>
  <text x="100" y="197" fill="#39FF14" font-family="monospace" font-size="17" letter-spacing="1.3">SYSTEMS PROGRAMMING · INFRASTRUCTURE</text>
  <text x="100" y="229" fill="#91A998" font-family="monospace" font-size="13">C · CONCURRENCY · ALGORITHMS · DOCKER</text>
  <rect x="794" y="65" width="340" height="152" rx="12" fill="#070C09" stroke="#245333" />
  <circle cx="817" cy="85" r="4" fill="#39FF14" />
  <circle cx="833" cy="85" r="4" fill="#245333" />
  <circle cx="849" cy="85" r="4" fill="#245333" />
  <text x="820" y="120" fill="#39FF14" font-family="monospace" font-size="14">$ whoami</text>
  <text x="820" y="145" fill="#E2F6E7" font-family="monospace" font-size="14">takawaka</text>
  <text x="820" y="177" fill="#39FF14" font-family="monospace" font-size="14">$ echo $FOCUS</text>
  <text x="820" y="202" fill="#E2F6E7" font-family="monospace" font-size="14">systems_and_infrastructure</text>
  <text x="100" y="278" fill="#4F8860" font-family="monospace" font-size="11">BUILD · LEARN · REPEAT</text>
</svg>
